<svg width="28" height="50" viewBox="0 0 28 50" fill="none" xmlns="http://www.w3.org/2000/svg">
<path d="M26.4979 0.0104032L20.0141 0C12.7297 0 8.02228 4.8297 8.02228 12.3049V17.9783H1.5031C0.939764 17.9783 0.483582 18.435 0.483582 18.9984V27.2185C0.483582 27.7818 0.940284 28.238 1.5031 28.238H8.02228V48.98C8.02228 49.5433 8.47846 49.9995 9.0418 49.9995H17.5475C18.1108 49.9995 18.567 49.5428 18.567 48.98V28.238H26.1894C26.7528 28.238 27.209 27.7818 27.209 27.2185L27.2121 18.9984C27.2121 18.7279 27.1044 18.4689 26.9135 18.2774C26.7226 18.086 26.4625 17.9783 26.192 17.9783H18.567V13.1689C18.567 10.8573 19.1178 9.68385 22.1291 9.68385L26.4969 9.68229C27.0597 9.68229 27.5159 9.22558 27.5159 8.66277V1.02992C27.5159 0.467625 27.0602 0.0114436 26.4979 0.0104032Z" fill="#343A33"/>
</svg>
