<svg width="50" height="50" viewBox="0 0 50 50" fill="none" xmlns="http://www.w3.org/2000/svg">
<path d="M50 30.4037V48.889H39.2834V31.6417C39.2834 27.3091 37.7333 24.3522 33.8543 24.3522C30.8931 24.3522 29.1309 26.3449 28.3557 28.2725C28.0729 28.9617 28.0002 29.9208 28.0002 30.8854V48.889H17.2799C17.2799 48.889 17.4243 19.6778 17.2799 16.6513H27.9991V21.2208C27.9774 21.255 27.9491 21.2919 27.9287 21.325H27.9991V21.2208C29.4233 19.0274 31.9666 15.8939 37.6595 15.8939C44.7126 15.8938 50 20.5015 50 30.4037ZM6.06614 1.11108C2.39877 1.11108 0 3.51659 0 6.67992C0 9.77431 2.32937 12.2528 5.92385 12.2528H5.99546C9.73386 12.2528 12.0588 9.77478 12.0588 6.67992C11.9884 3.51659 9.73386 1.11108 6.06614 1.11108ZM0.636687 48.889H11.3528V16.6513H0.636687V48.889Z" fill="#343A33"/>
</svg>
