<svg width="50" height="50" viewBox="0 0 50 50" fill="none" xmlns="http://www.w3.org/2000/svg">
<g clip-path="url(#clip0)">
<path d="M43.8961 5.97455H6.11421C2.74157 5.97455 0 8.71612 0 12.0888V37.9112C0 41.2839 2.74157 44.0255 6.11421 44.0255H43.8858C47.2584 44.0255 50 41.2839 50 37.9112V12.0991C50.0103 8.72646 47.2688 5.97455 43.8961 5.97455ZM47.2171 37.9112C47.2171 39.7424 45.7273 41.2322 43.8961 41.2322H6.11421C4.28305 41.2322 2.7933 39.7424 2.7933 37.9112V12.0991C2.7933 10.2679 4.28305 8.77819 6.11421 8.77819H43.8858C45.717 8.77819 47.2067 10.2679 47.2067 12.0991V37.9112H47.2171Z" fill="#343A33"/>
<path d="M31.5332 24.6793L43.7616 13.713C44.3306 13.1957 44.3824 12.3164 43.8651 11.737C43.3478 11.168 42.4684 11.1163 41.8891 11.6336L25.0259 26.7691L21.736 23.831C21.7256 23.8206 21.7153 23.8103 21.7153 23.7999C21.6429 23.7275 21.5704 23.6654 21.4877 23.6034L8.10056 11.6232C7.52121 11.1059 6.64184 11.1577 6.12456 11.737C5.60728 12.3164 5.65901 13.1957 6.23836 13.713L18.6116 24.7724L6.29009 36.3077C5.73143 36.8353 5.70039 37.7147 6.22801 38.2837C6.50734 38.5734 6.87978 38.7285 7.25222 38.7285C7.59362 38.7285 7.93503 38.6044 8.20401 38.3561L20.7118 26.6553L24.1051 29.6865C24.3741 29.9245 24.7051 30.0383 25.0362 30.0383C25.3673 30.0383 25.7087 29.9141 25.9673 29.6762L29.4538 26.5518L41.8891 38.3664C42.1581 38.6251 42.5098 38.7492 42.8512 38.7492C43.2237 38.7492 43.5858 38.6044 43.8651 38.3147C44.3927 37.7561 44.372 36.8663 43.8134 36.3387L31.5332 24.6793Z" fill="#343A33"/>
</g>
<defs>
<clipPath id="clip0">
<rect width="50" height="50" fill="white"/>
</clipPath>
</defs>
</svg>
