<svg width="50" height="50" viewBox="0 0 50 50" fill="none" xmlns="http://www.w3.org/2000/svg">
<g clip-path="url(#clip0)">
<path d="M50 9.49821C48.1598 10.3137 46.1852 10.8667 44.1105 11.1136C46.2289 9.84502 47.8504 7.83293 48.619 5.44274C46.6319 6.61749 44.4385 7.47052 42.1014 7.93293C40.2299 5.93645 37.5679 4.6929 34.6153 4.6929C28.9508 4.6929 24.3579 9.28579 24.3579 14.9472C24.3579 15.7502 24.4485 16.5344 24.6235 17.2843C16.1001 16.8562 8.54217 12.7726 3.48375 6.56749C2.59952 8.07975 2.0965 9.84184 2.0965 11.7228C2.0965 15.2815 3.90867 18.4216 6.65818 20.2587C4.97722 20.2025 3.39625 19.74 2.01218 18.9714V19.0995C2.01218 24.0673 5.54903 28.2134 10.2387 29.157C9.37951 29.3882 8.47346 29.5163 7.53612 29.5163C6.87379 29.5163 6.23326 29.4507 5.60524 29.3257C6.91121 33.4031 10.6981 36.3681 15.1847 36.4494C11.676 39.1989 7.25181 40.833 2.4465 40.833C1.61856 40.833 0.803033 40.783 9.15527e-05 40.6924C4.53988 43.6075 9.92951 45.3072 15.7222 45.3072C34.5905 45.3072 44.9042 29.6788 44.9042 16.1252L44.8698 14.7973C46.885 13.36 48.6284 11.5541 50 9.49821Z" fill="#343A33"/>
</g>
<defs>
<clipPath id="clip0">
<rect width="50" height="50" fill="white"/>
</clipPath>
</defs>
</svg>
