<svg width="180" height="50" viewBox="0 0 180 50" fill="none" xmlns="http://www.w3.org/2000/svg">
<path fill-rule="evenodd" clip-rule="evenodd" d="M13.4029 19.5802C12.2019 18.957 11.0249 18.6454 9.872 18.6454C9.27151 18.6454 8.78512 18.7653 8.41282 19.005C8.04051 19.2447 7.85437 19.5683 7.85437 19.9757C7.85437 20.1915 7.88439 20.3653 7.94444 20.4971C8.00449 20.6289 8.13659 20.7548 8.34076 20.8746C8.54493 20.9945 8.84517 21.1023 9.24149 21.1982C9.63781 21.2941 10.1602 21.414 10.8088 21.5578C12.6102 21.9173 13.9553 22.5585 14.844 23.4814C15.7328 24.4042 16.1771 25.5848 16.1771 27.023C16.1771 28.1016 15.9609 29.0724 15.5286 29.9353C15.0962 30.7983 14.4958 31.5234 13.7271 32.1106C12.9585 32.6979 12.0338 33.1533 10.9529 33.4769C9.872 33.8005 8.68304 33.9623 7.38599 33.9623C4.88795 33.9623 2.42598 33.2552 0 31.841L2.37793 27.2387C4.20342 28.4852 5.9328 29.1084 7.56613 29.1084C8.16662 29.1084 8.65902 28.9765 9.04333 28.7129C9.42764 28.4492 9.6198 28.1136 9.6198 27.7061C9.6198 27.4664 9.58977 27.2687 9.52972 27.1129C9.46968 26.957 9.34357 26.8132 9.15142 26.6814C8.95926 26.5496 8.67704 26.4297 8.30473 26.3218C7.93243 26.214 7.44604 26.1001 6.84555 25.9803C4.8279 25.5728 3.41677 24.9675 2.61212 24.1645C1.80746 23.3615 1.40514 22.2529 1.40514 20.8387C1.40514 19.8079 1.59729 18.8791 1.98161 18.0521C2.36592 17.2252 2.91836 16.524 3.63895 15.9488C4.35954 15.3735 5.23023 14.93 6.25107 14.6184C7.2719 14.3068 8.40681 14.151 9.65583 14.151C11.6975 14.151 13.6791 14.5465 15.6006 15.3375L13.4029 19.5802ZM25.6528 23.9668C25.6528 24.59 25.7669 25.1593 25.9951 25.6746C26.2233 26.19 26.5235 26.6394 26.8958 27.023C27.2681 27.4065 27.7125 27.7061 28.2289 27.9218C28.7453 28.1376 29.2917 28.2454 29.8682 28.2454C30.4447 28.2454 30.9911 28.1376 31.5075 27.9218C32.024 27.7061 32.4683 27.4065 32.8406 27.023C33.2129 26.6394 33.5132 26.19 33.7413 25.6746C33.9695 25.1593 34.0836 24.602 34.0836 24.0027C34.0836 23.4274 33.9695 22.8821 33.7413 22.3668C33.5132 21.8514 33.2129 21.402 32.8406 21.0184C32.4683 20.6349 32.024 20.3353 31.5075 20.1196C30.9911 19.9038 30.4447 19.796 29.8682 19.796C29.2917 19.796 28.7453 19.9038 28.2289 20.1196C27.7125 20.3353 27.2681 20.6349 26.8958 21.0184C26.5235 21.402 26.2233 21.8454 25.9951 22.3488C25.7669 22.8522 25.6528 23.3915 25.6528 23.9668ZM19.5999 20.0656C19.0474 21.2522 18.7712 22.5286 18.7712 23.8949C18.7712 25.405 19.0474 26.7773 19.5999 28.0117C20.1523 29.2462 20.9149 30.3069 21.8877 31.1938C22.8605 32.0807 24.0195 32.7638 25.3646 33.2432C26.7097 33.7226 28.1748 33.9623 29.7601 33.9623C31.3694 33.9623 32.8646 33.7226 34.2458 33.2432C35.6269 32.7638 36.8098 32.0867 37.7946 31.2117C38.7794 30.3368 39.5541 29.2941 40.1185 28.0836C40.683 26.8731 40.9652 25.5368 40.9652 24.0746C40.9652 22.6125 40.689 21.2761 40.1365 20.0656C39.5841 18.8551 38.8095 17.8124 37.8126 16.9375C36.8158 16.0626 35.6389 15.3795 34.2818 14.8881C32.9247 14.3967 31.4535 14.151 29.8682 14.151C28.2589 14.151 26.7757 14.4027 25.4186 14.9061C24.0615 15.4094 22.8906 16.0986 21.9058 16.9735C20.921 17.8484 20.1523 18.8791 19.5999 20.0656ZM93.712 14.8341H100.233V17.1712C101.122 16.0926 102.023 15.3675 102.935 14.9959C103.848 14.6244 104.917 14.4386 106.142 14.4386C107.439 14.4386 108.55 14.6484 109.475 15.0679C110.399 15.4873 111.186 16.0806 111.835 16.8476C112.363 17.4709 112.723 18.166 112.916 18.933C113.108 19.7001 113.204 20.575 113.204 21.5578V33.2792H106.682V23.9668C106.682 23.0559 106.616 22.3188 106.484 21.7555C106.352 21.1922 106.118 20.7428 105.782 20.4072C105.493 20.1196 105.169 19.9158 104.809 19.796C104.449 19.6761 104.064 19.6162 103.656 19.6162C102.551 19.6162 101.704 19.9458 101.116 20.605C100.527 21.2641 100.233 22.205 100.233 23.4274V33.2792H93.712V14.8341ZM124.013 25.6746C123.796 25.1593 123.688 24.602 123.688 24.0027C123.688 23.4274 123.796 22.8941 124.013 22.4027C124.229 21.9113 124.523 21.4739 124.895 21.0904C125.268 20.7068 125.712 20.4072 126.228 20.1915C126.745 19.9757 127.303 19.8679 127.904 19.8679C128.48 19.8679 129.027 19.9757 129.543 20.1915C130.059 20.4072 130.504 20.7068 130.876 21.0904C131.248 21.4739 131.549 21.9233 131.777 22.4387C132.005 22.954 132.119 23.4994 132.119 24.0746C132.119 24.6499 132.005 25.1892 131.777 25.6926C131.549 26.196 131.248 26.6394 130.876 27.023C130.504 27.4065 130.059 27.7061 129.543 27.9218C129.027 28.1376 128.48 28.2454 127.904 28.2454C127.303 28.2454 126.745 28.1376 126.228 27.9218C125.712 27.7061 125.268 27.4065 124.895 27.023C124.523 26.6394 124.229 26.19 124.013 25.6746ZM131.903 14.8341H138.46V33.2792H131.903V31.2297C130.51 32.9796 128.624 33.8545 126.246 33.8545C124.901 33.8545 123.664 33.6088 122.535 33.1174C121.406 32.626 120.422 31.9368 119.581 31.0499C118.74 30.163 118.086 29.1204 117.617 27.9218C117.149 26.7233 116.915 25.417 116.915 24.0027C116.915 22.6844 117.143 21.4319 117.599 20.2454C118.056 19.0589 118.692 18.0222 119.509 17.1353C120.326 16.2484 121.298 15.5473 122.427 15.0319C123.556 14.5165 124.805 14.2589 126.174 14.2589C128.48 14.2589 130.39 15.0619 131.903 16.6679V14.8341ZM149.413 14.8341H142.892V33.2792H149.413V25.369C149.413 23.6432 149.791 22.3308 150.548 21.4319C151.305 20.533 152.44 20.0836 153.953 20.0836C154.962 20.0836 155.898 20.2993 156.763 20.7308V14.5106C156.499 14.4626 156.265 14.4386 156.06 14.4386H155.502C154.157 14.4386 152.98 14.7323 151.971 15.3195C150.962 15.9068 150.11 16.7518 149.413 17.8544V14.8341ZM173.156 21.378C172.94 20.4671 172.496 19.736 171.823 19.1847C171.151 18.6334 170.334 18.3578 169.373 18.3578C168.364 18.3578 167.542 18.6214 166.905 19.1488C166.269 19.6761 165.866 20.4192 165.698 21.378H173.156ZM169.481 29.3601C166.839 29.3601 165.518 27.9578 165.518 25.1533H179.245V24.4701C179.245 22.8641 179.017 21.42 178.561 20.1375C178.104 18.8551 177.444 17.7705 176.579 16.8836C175.714 15.9967 174.658 15.3195 173.409 14.8521C172.16 14.3847 170.754 14.151 169.193 14.151C167.608 14.151 166.185 14.3847 164.924 14.8521C163.663 15.3195 162.588 15.9847 161.699 16.8476C160.81 17.7106 160.126 18.7593 159.645 19.9937C159.165 21.2282 158.925 22.6125 158.925 24.1465C158.925 25.6327 159.177 26.975 159.681 28.1735C160.186 29.372 160.9 30.4028 161.825 31.2657C162.75 32.1286 163.861 32.7938 165.158 33.2612C166.455 33.7286 167.884 33.9623 169.445 33.9623C174.538 33.9623 177.72 31.853 178.993 27.6342H172.688C171.967 28.7848 170.899 29.3601 169.481 29.3601Z" fill="white" fill-opacity="0.99"/>
<path fill-rule="evenodd" clip-rule="evenodd" d="M84.9056 31.3376V0.89172H73.407V4.33121C70.7812 1.44372 67.5412 0 63.6872 0C61.3154 0 59.1237 0.456471 57.112 1.36943C55.1002 2.28238 53.3638 3.53502 51.9027 5.12739C50.4415 6.71975 49.2874 8.5881 48.4404 10.7325C47.5933 12.8769 47.1698 15.2017 47.1698 17.707C47.1698 20.1699 47.5616 22.4098 48.3451 24.4268C49.1286 26.4437 50.2297 28.1741 51.6485 29.6178C53.0674 31.0616 54.7508 32.1868 56.6991 32.9936C58.6473 33.8004 60.786 34.2038 63.1154 34.2038C64.1742 34.2038 65.1483 34.1295 66.0377 33.9809C66.9271 33.8323 67.7742 33.5881 68.5789 33.2484C69.3836 32.9087 70.1777 32.4735 70.9612 31.9427C71.7447 31.4119 72.56 30.7431 73.407 29.9363V33.0573C73.407 35.4777 72.7612 37.3673 71.4694 38.7261C70.1777 40.0849 68.3248 40.7643 65.9107 40.7643C63.0731 40.7643 61.2519 39.6815 60.4472 37.5159H47.4874C47.8263 39.2994 48.5039 40.9448 49.5203 42.4522C50.5368 43.9597 51.8391 45.276 53.4273 46.4013C55.0156 47.5265 56.8685 48.4076 58.9861 49.0446C61.1037 49.6815 63.433 50 65.9742 50C68.2189 50 70.3047 49.7452 72.2317 49.2357C74.1588 48.7261 75.8846 48.0255 77.4093 47.1338C78.934 46.242 80.2363 45.1911 81.3163 43.9809C82.3963 42.7707 83.1904 41.465 83.6986 40.0637C84.0798 38.9597 84.3762 37.6858 84.588 36.242C84.7998 34.7983 84.9056 33.1635 84.9056 31.3376ZM59.6849 20.0318C59.3037 19.1189 59.1131 18.1316 59.1131 17.0701C59.1131 16.051 59.3143 15.0955 59.7167 14.2038C60.119 13.3121 60.659 12.5372 61.3366 11.879C62.0143 11.2208 62.7978 10.69 63.6872 10.2866C64.5766 9.88323 65.5295 9.68153 66.546 9.68153C67.5201 9.68153 68.4624 9.87261 69.373 10.2548C70.2835 10.6369 71.0776 11.1677 71.7553 11.8471C72.4329 12.5265 72.9729 13.3121 73.3753 14.2038C73.7776 15.0955 73.9788 16.0722 73.9788 17.1338C73.9788 18.1529 73.7776 19.1189 73.3753 20.0318C72.9729 20.9448 72.4435 21.741 71.787 22.4204C71.1306 23.0998 70.3471 23.6306 69.4365 24.0127C68.5259 24.3949 67.5624 24.586 66.546 24.586C65.4871 24.586 64.5025 24.3949 63.5919 24.0127C62.6813 23.6306 61.8978 23.0998 61.2413 22.4204C60.5849 21.741 60.0661 20.9448 59.6849 20.0318Z" fill="#1F4DF7"/>
<path fill-rule="evenodd" clip-rule="evenodd" d="M145.584 38.6792V47.9634H147.11V38.6792H145.584ZM123.585 40.9628V39.2158H125.123V40.9628H123.585ZM123.585 47.9634V42.5851H125.123V47.9634H123.585ZM129.833 42.5851H128.64V40.5885H127.126V42.5851H126.053V44.0451H127.126V47.9634H128.64V44.0451H129.833V42.5851ZM134.113 47.1398L135.067 46.129C135.818 47.0275 136.963 47.0649 136.963 46.3911C136.963 45.9918 136.593 45.867 136.212 45.7422C135.21 45.4177 134.519 45.0933 134.519 44.0576C134.519 43.0717 135.365 42.4228 136.343 42.4228C137.225 42.4228 137.702 42.6225 138.394 43.0593L137.702 44.1948C136.701 43.4461 136.021 43.5085 135.95 44.0825C135.902 44.4039 136.255 44.5151 136.706 44.6569C136.815 44.6913 136.93 44.7274 137.047 44.7688C137.774 44.9935 138.454 45.5051 138.454 46.4285C138.454 47.2896 137.607 48.1132 136.558 48.1132C135.628 48.1132 134.745 47.8012 134.113 47.1398ZM144.749 45.268C144.749 43.6957 143.485 42.4228 141.899 42.4228C140.326 42.4228 139.062 43.6957 139.062 45.268C139.062 46.8528 140.326 48.1132 141.899 48.1132C143.485 48.1132 144.749 46.8528 144.749 45.268ZM142.865 46.3162C143.116 46.0292 143.247 45.6548 143.247 45.2555C143.247 44.8687 143.116 44.5068 142.865 44.2323C142.603 43.9452 142.281 43.7955 141.911 43.7955C141.566 43.7955 141.22 43.9452 140.981 44.2323C140.707 44.5068 140.576 44.8812 140.576 45.268C140.576 45.6673 140.707 46.0292 140.981 46.3162C141.22 46.5907 141.566 46.7405 141.911 46.7405C142.281 46.7405 142.603 46.5907 142.865 46.3162ZM153.358 42.5851V45.2555C153.358 46.8403 152.046 48.1132 150.663 48.1132C149.268 48.1132 147.968 46.8403 147.968 45.2555V42.5851H149.495V45.2181C149.495 45.5924 149.626 45.9419 149.817 46.1914C150.055 46.4535 150.365 46.6032 150.663 46.6032C150.961 46.6032 151.271 46.4535 151.498 46.1914C151.701 45.9419 151.832 45.5924 151.832 45.2181V42.5851H153.358ZM157.972 42.5851H156.78V40.5885H155.266V42.5851H154.193V44.0451H155.266V47.9634H156.78V44.0451H157.972V42.5851ZM158.902 40.9628V39.2158H160.44V40.9628H158.902ZM158.902 42.5851V47.9634H160.44V42.5851H158.902ZM164.113 42.4228C165.699 42.4228 166.963 43.6957 166.963 45.268C166.963 46.8528 165.699 48.1132 164.113 48.1132C162.539 48.1132 161.275 46.8528 161.275 45.268C161.275 43.6957 162.539 42.4228 164.113 42.4228ZM165.46 45.2555C165.46 45.6548 165.329 46.0292 165.079 46.3162C164.816 46.5907 164.494 46.7405 164.125 46.7405C163.779 46.7405 163.433 46.5907 163.195 46.3162C162.921 46.0292 162.789 45.6673 162.789 45.268C162.789 44.8812 162.921 44.5068 163.195 44.2323C163.433 43.9452 163.779 43.7955 164.125 43.7955C164.494 43.7955 164.816 43.9452 165.079 44.2323C165.329 44.5068 165.46 44.8687 165.46 45.2555ZM169.013 42.5851L169.252 43.0593C169.657 42.6849 170.194 42.4353 170.719 42.4353C172.102 42.4353 173.234 43.7081 173.234 45.293V47.9634H171.78V45.293C171.78 44.5193 171.255 43.8329 170.54 43.8329C169.824 43.8329 169.3 44.5193 169.3 45.293V47.9634H167.797V42.5851H169.013ZM174.916 46.129L173.962 47.1398C174.594 47.8012 175.476 48.1132 176.406 48.1132C177.455 48.1132 178.302 47.2896 178.302 46.4285C178.302 45.5051 177.622 44.9935 176.895 44.7688C176.779 44.7274 176.663 44.6913 176.554 44.6569C176.104 44.5151 175.75 44.4039 175.798 44.0825C175.869 43.5085 176.549 43.4461 177.551 44.1948L178.242 43.0593C177.551 42.6225 177.074 42.4228 176.191 42.4228C175.214 42.4228 174.367 43.0717 174.367 44.0576C174.367 45.0933 175.059 45.4177 176.06 45.7422C176.442 45.867 176.811 45.9918 176.811 46.3911C176.811 47.0649 175.667 47.0275 174.916 46.129Z" fill="#1F4DF7"/>
</svg>
