<svg width="180" height="51" viewBox="0 0 180 51" fill="none" xmlns="http://www.w3.org/2000/svg">
<path fill-rule="evenodd" clip-rule="evenodd" d="M13.4465 20.0709C12.2462 19.4567 11.0699 19.1496 9.91753 19.1496C9.31736 19.1496 8.83123 19.2677 8.45913 19.5039C8.08702 19.7402 7.90097 20.0591 7.90097 20.4606C7.90097 20.6732 7.93098 20.8445 7.991 20.9744C8.05101 21.1043 8.18305 21.2283 8.38711 21.3465C8.59116 21.4646 8.89124 21.5709 9.28736 21.6654C9.68347 21.7598 10.2056 21.878 10.8538 22.0197C12.6543 22.374 13.9987 23.0059 14.8869 23.9154C15.7752 24.8248 16.2193 25.9882 16.2193 27.4055C16.2193 28.4685 16.0032 29.4252 15.5711 30.2756C15.139 31.126 14.5388 31.8405 13.7706 32.4193C13.0024 32.998 12.0781 33.4468 10.9978 33.7657C9.91753 34.0846 8.72921 34.2441 7.43284 34.2441C4.93613 34.2441 2.47547 33.5473 0.0507812 32.1535L2.42744 27.6181C4.25196 28.8465 5.98043 29.4606 7.61289 29.4606C8.21306 29.4606 8.70519 29.3307 9.0893 29.0709C9.47341 28.811 9.66546 28.4803 9.66546 28.0787C9.66546 27.8425 9.63545 27.6476 9.57544 27.4941C9.51542 27.3406 9.38939 27.1988 9.19733 27.0689C9.00528 26.939 8.7232 26.8209 8.3511 26.7146C7.97899 26.6083 7.49286 26.4961 6.89269 26.378C4.87612 25.9764 3.46574 25.3799 2.66151 24.5886C1.85728 23.7972 1.45517 22.7047 1.45517 21.311C1.45517 20.2953 1.64722 19.3799 2.03133 18.565C2.41544 17.75 2.96759 17.0591 3.6878 16.4921C4.408 15.9252 5.27823 15.4882 6.29852 15.1811C7.31881 14.874 8.45312 14.7205 9.70147 14.7205C11.7421 14.7205 13.7226 15.1102 15.6431 15.8898L13.4465 20.0709ZM25.6909 24.3937C25.6909 25.0079 25.805 25.5689 26.033 26.0768C26.2611 26.5847 26.5612 27.0276 26.9333 27.4055C27.3054 27.7835 27.7495 28.0787 28.2656 28.2913C28.7818 28.5039 29.3279 28.6102 29.9041 28.6102C30.4803 28.6102 31.0264 28.5039 31.5426 28.2913C32.0587 28.0787 32.5028 27.7835 32.8749 27.4055C33.247 27.0276 33.5471 26.5847 33.7752 26.0768C34.0033 25.5689 34.1173 25.0197 34.1173 24.4291C34.1173 23.8622 34.0033 23.3248 33.7752 22.8169C33.5471 22.3091 33.247 21.8661 32.8749 21.4882C32.5028 21.1102 32.0587 20.815 31.5426 20.6024C31.0264 20.3898 30.4803 20.2835 29.9041 20.2835C29.3279 20.2835 28.7818 20.3898 28.2656 20.6024C27.7495 20.815 27.3054 21.1102 26.9333 21.4882C26.5612 21.8661 26.2611 22.3031 26.033 22.7992C25.805 23.2953 25.6909 23.8268 25.6909 24.3937ZM19.6414 20.5492C19.0892 21.7185 18.8132 22.9764 18.8132 24.3228C18.8132 25.811 19.0892 27.1634 19.6414 28.3799C20.1935 29.5965 20.9557 30.6417 21.928 31.5157C22.9003 32.3898 24.0586 33.063 25.403 33.5354C26.7474 34.0079 28.2118 34.2441 29.7962 34.2441C31.4047 34.2441 32.8991 34.0079 34.2795 33.5354C35.6599 33.063 36.8422 32.3957 37.8265 31.5335C38.8107 30.6713 39.5849 29.6437 40.1491 28.4508C40.7133 27.2579 40.9953 25.941 40.9953 24.5C40.9953 23.059 40.7193 21.7421 40.1671 20.5492C39.615 19.3563 38.8407 18.3287 37.8445 17.4665C36.8482 16.6043 35.6719 15.9311 34.3155 15.4469C32.9591 14.9626 31.4887 14.7205 29.9042 14.7205C28.2958 14.7205 26.8134 14.9685 25.457 15.4646C24.1006 15.9606 22.9303 16.6398 21.946 17.502C20.9617 18.3642 20.1935 19.3799 19.6414 20.5492ZM93.7134 15.3937H100.231V17.6969C101.12 16.6339 102.02 15.9193 102.932 15.5532C103.844 15.187 104.913 15.0039 106.137 15.0039C107.433 15.0039 108.544 15.2106 109.468 15.624C110.392 16.0374 111.178 16.622 111.826 17.378C112.355 17.9921 112.715 18.6772 112.907 19.4331C113.099 20.189 113.195 21.0512 113.195 22.0197V33.5709H106.677V24.3937C106.677 23.4961 106.611 22.7697 106.479 22.2146C106.347 21.6594 106.113 21.2165 105.777 20.8858C105.489 20.6024 105.165 20.4016 104.805 20.2835C104.444 20.1654 104.06 20.1063 103.652 20.1063C102.548 20.1063 101.702 20.4311 101.114 21.0807C100.525 21.7303 100.231 22.6575 100.231 23.8622V33.5709H93.7134V15.3937ZM123.998 26.0768C123.782 25.5689 123.674 25.0197 123.674 24.4291C123.674 23.8622 123.782 23.3366 123.998 22.8524C124.214 22.3681 124.508 21.937 124.88 21.5591C125.252 21.1811 125.697 20.8858 126.213 20.6732C126.729 20.4606 127.287 20.3543 127.887 20.3543C128.463 20.3543 129.009 20.4606 129.526 20.6732C130.042 20.8858 130.486 21.1811 130.858 21.5591C131.23 21.937 131.53 22.3799 131.758 22.8878C131.986 23.3957 132.1 23.9331 132.1 24.5C132.1 25.0669 131.986 25.5984 131.758 26.0945C131.53 26.5906 131.23 27.0276 130.858 27.4055C130.486 27.7835 130.042 28.0787 129.526 28.2913C129.009 28.5039 128.463 28.6102 127.887 28.6102C127.287 28.6102 126.729 28.5039 126.213 28.2913C125.697 28.0787 125.252 27.7835 124.88 27.4055C124.508 27.0276 124.214 26.5846 123.998 26.0768ZM131.885 15.3937H138.438V33.5709H131.885V31.5512C130.492 33.2756 128.608 34.1378 126.231 34.1378C124.887 34.1378 123.65 33.8957 122.522 33.4114C121.394 32.9272 120.409 32.248 119.569 31.374C118.729 30.5 118.075 29.4725 117.607 28.2913C117.138 27.1102 116.904 25.8228 116.904 24.4291C116.904 23.1299 117.132 21.8957 117.589 20.7264C118.045 19.5571 118.681 18.5354 119.497 17.6614C120.313 16.7874 121.286 16.0965 122.414 15.5886C123.542 15.0807 124.791 14.8268 126.159 14.8268C128.464 14.8268 130.372 15.6181 131.885 17.2008V15.3937ZM149.385 15.3937H142.867V33.5709H149.385V25.7756C149.385 24.0748 149.763 22.7815 150.519 21.8957C151.276 21.0098 152.41 20.5669 153.922 20.5669C154.931 20.5669 155.867 20.7795 156.731 21.2047V15.0748C156.467 15.0276 156.233 15.0039 156.029 15.0039H155.471C154.126 15.0039 152.95 15.2933 151.942 15.8721C150.933 16.4508 150.081 17.2835 149.385 18.3701V15.3937ZM173.116 21.8425C172.9 20.9449 172.456 20.2244 171.784 19.6811C171.112 19.1378 170.295 18.8661 169.335 18.8661C168.327 18.8661 167.505 19.126 166.868 19.6457C166.232 20.1654 165.83 20.8976 165.662 21.8425H173.116ZM169.443 29.7087C166.802 29.7087 165.481 28.3268 165.481 25.563H179.201V24.8898C179.201 23.3071 178.973 21.8839 178.517 20.6201C178.061 19.3563 177.401 18.2874 176.536 17.4134C175.672 16.5394 174.616 15.8721 173.368 15.4114C172.119 14.9508 170.715 14.7205 169.154 14.7205C167.57 14.7205 166.148 14.9508 164.887 15.4114C163.627 15.8721 162.553 16.5276 161.664 17.378C160.776 18.2284 160.092 19.2618 159.612 20.4783C159.132 21.6949 158.892 23.059 158.892 24.5709C158.892 26.0354 159.144 27.3583 159.648 28.5394C160.152 29.7205 160.866 30.7362 161.79 31.5866C162.715 32.437 163.825 33.0925 165.121 33.5532C166.418 34.0138 167.846 34.2441 169.406 34.2441C174.496 34.2441 177.677 32.1654 178.949 28.0079H172.647C171.927 29.1417 170.859 29.7087 169.443 29.7087Z" fill="#30372E" fill-opacity="0.99"/>
<path fill-rule="evenodd" clip-rule="evenodd" d="M85.2239 31.7598V1.64961H73.6366V5.05118C70.9906 2.19552 67.7257 0.767717 63.8419 0.767717C61.4519 0.767717 59.2433 1.21916 57.2161 2.12205C55.1888 3.02494 53.439 4.26377 51.9666 5.83858C50.4942 7.41339 49.3312 9.26114 48.4776 11.3819C47.624 13.5026 47.1973 15.8018 47.1973 18.2795C47.1973 20.7152 47.592 22.9304 48.3816 24.9252C49.1712 26.92 50.2808 28.6312 51.7105 30.0591C53.1403 31.4869 54.8367 32.5997 56.7999 33.3976C58.7632 34.1955 60.9184 34.5945 63.2657 34.5945C64.3327 34.5945 65.3143 34.521 66.2106 34.374C67.1068 34.227 67.9604 33.9856 68.7713 33.6496C69.5822 33.3136 70.3824 32.8832 71.172 32.3583C71.9615 31.8333 72.7831 31.1719 73.6366 30.374V33.4606C73.6366 35.8543 72.9858 37.7231 71.6841 39.0669C70.3824 40.4108 68.5152 41.0827 66.0825 41.0827C63.2231 41.0827 61.3879 40.0118 60.577 37.8701H47.5174C47.8588 39.6339 48.5416 41.2611 49.5659 42.752C50.5902 44.2428 51.9026 45.5446 53.503 46.6575C55.1035 47.7703 56.9706 48.6417 59.1046 49.2717C61.2385 49.9016 63.5858 50.2165 66.1466 50.2165C68.4085 50.2165 70.5104 49.9646 72.4523 49.4606C74.3942 48.9567 76.1333 48.2638 77.6698 47.3819C79.2062 46.5 80.5186 45.4606 81.6069 44.2638C82.6952 43.0669 83.4954 41.7756 84.0075 40.3898C84.3916 39.2979 84.6904 38.0381 84.9038 36.6102C85.1172 35.1824 85.2239 33.5656 85.2239 31.7598ZM59.8094 20.5787C59.4253 19.6758 59.2332 18.6995 59.2332 17.6496C59.2332 16.6417 59.436 15.6969 59.8414 14.815C60.2469 13.9331 60.791 13.1667 61.4739 12.5157C62.1567 11.8648 62.9463 11.3399 63.8425 10.9409C64.7388 10.542 65.699 10.3425 66.7233 10.3425C67.7049 10.3425 68.6545 10.5315 69.5721 10.9095C70.4897 11.2874 71.2899 11.8123 71.9728 12.4843C72.6557 13.1562 73.1998 13.9331 73.6053 14.815C74.0107 15.6969 74.2134 16.6627 74.2134 17.7126C74.2134 18.7205 74.0107 19.6758 73.6053 20.5787C73.1998 21.4816 72.6663 22.269 72.0048 22.9409C71.3433 23.6129 70.5537 24.1378 69.6361 24.5157C68.7186 24.8937 67.7476 25.0827 66.7233 25.0827C65.6564 25.0827 64.6641 24.8937 63.7465 24.5157C62.8289 24.1378 62.0394 23.6129 61.3778 22.9409C60.7163 22.269 60.1935 21.4816 59.8094 20.5787Z" fill="#1F4DF7"/>
<path fill-rule="evenodd" clip-rule="evenodd" d="M145.16 38.563V47.3504H146.696V38.563H145.16ZM123.014 40.7244V39.0709H124.562V40.7244H123.014ZM123.014 47.3504V42.2598H124.562V47.3504H123.014ZM129.304 42.2598H128.104V40.3701H126.579V42.2598H125.499V43.6417H126.579V47.3504H128.104V43.6417H129.304V42.2598ZM133.612 46.5709L134.573 45.6142C135.329 46.4646 136.481 46.5 136.481 45.8622C136.481 45.4842 136.109 45.3661 135.725 45.248C134.717 44.9409 134.021 44.6339 134.021 43.6535C134.021 42.7205 134.873 42.1063 135.857 42.1063C136.745 42.1063 137.225 42.2953 137.922 42.7087L137.225 43.7835C136.217 43.0748 135.533 43.1339 135.461 43.6772C135.413 43.9813 135.769 44.0866 136.222 44.2208C136.332 44.2533 136.448 44.2876 136.565 44.3268C137.298 44.5394 137.982 45.0236 137.982 45.8976C137.982 46.7126 137.129 47.4921 136.073 47.4921C135.137 47.4921 134.249 47.1968 133.612 46.5709ZM144.32 44.7992C144.32 43.311 143.048 42.1063 141.451 42.1063C139.867 42.1063 138.595 43.311 138.595 44.7992C138.595 46.2992 139.867 47.4921 141.451 47.4921C143.048 47.4921 144.32 46.2992 144.32 44.7992ZM142.424 45.7913C142.676 45.5197 142.808 45.1654 142.808 44.7874C142.808 44.4213 142.676 44.0787 142.424 43.8189C142.16 43.5472 141.836 43.4055 141.463 43.4055C141.115 43.4055 140.767 43.5472 140.527 43.8189C140.251 44.0787 140.119 44.4331 140.119 44.7992C140.119 45.1772 140.251 45.5197 140.527 45.7913C140.767 46.0512 141.115 46.1929 141.463 46.1929C141.836 46.1929 142.16 46.0512 142.424 45.7913ZM152.986 42.2598V44.7874C152.986 46.2874 151.666 47.4921 150.273 47.4921C148.869 47.4921 147.561 46.2874 147.561 44.7874V42.2598H149.097V44.752C149.097 45.1063 149.229 45.437 149.421 45.6732C149.661 45.9213 149.973 46.063 150.273 46.063C150.573 46.063 150.886 45.9213 151.114 45.6732C151.318 45.437 151.45 45.1063 151.45 44.752V42.2598H152.986ZM157.632 42.2598H156.432V40.3701H154.907V42.2598H153.827V43.6417H154.907V47.3504H156.432V43.6417H157.632V42.2598ZM158.568 40.7244V39.0709H160.116V40.7244H158.568ZM158.568 42.2598V47.3504H160.116V42.2598H158.568ZM163.814 42.1063C165.41 42.1063 166.682 43.311 166.682 44.7992C166.682 46.2992 165.41 47.4921 163.814 47.4921C162.229 47.4921 160.957 46.2992 160.957 44.7992C160.957 43.311 162.229 42.1063 163.814 42.1063ZM165.17 44.7874C165.17 45.1654 165.038 45.5197 164.786 45.7913C164.522 46.0512 164.198 46.1929 163.826 46.1929C163.478 46.1929 163.129 46.0512 162.889 45.7913C162.613 45.5197 162.481 45.1772 162.481 44.7992C162.481 44.4331 162.613 44.0787 162.889 43.8189C163.129 43.5472 163.478 43.4055 163.826 43.4055C164.198 43.4055 164.522 43.5472 164.786 43.8189C165.038 44.0787 165.17 44.4213 165.17 44.7874ZM168.746 42.2598L168.986 42.7087C169.395 42.3543 169.935 42.1181 170.463 42.1181C171.855 42.1181 172.996 43.3228 172.996 44.8228V47.3504H171.531V44.8228C171.531 44.0905 171.003 43.4409 170.283 43.4409C169.563 43.4409 169.034 44.0905 169.034 44.8228V47.3504H167.522V42.2598H168.746ZM174.688 45.6142L173.728 46.5709C174.364 47.1968 175.252 47.4921 176.189 47.4921C177.245 47.4921 178.097 46.7126 178.097 45.8976C178.097 45.0236 177.413 44.5394 176.681 44.3268C176.564 44.2876 176.448 44.2533 176.338 44.2208C175.884 44.0866 175.528 43.9813 175.576 43.6772C175.648 43.1339 176.333 43.0748 177.341 43.7835L178.037 42.7087C177.341 42.2953 176.861 42.1063 175.973 42.1063C174.988 42.1063 174.136 42.7205 174.136 43.6535C174.136 44.6339 174.832 44.9409 175.84 45.248C176.225 45.3661 176.597 45.4842 176.597 45.8622C176.597 46.5 175.444 46.4646 174.688 45.6142Z" fill="#1F4DF7"/>
</svg>
