<svg width="12" height="12" viewBox="0 0 12 12" fill="none" xmlns="http://www.w3.org/2000/svg">
<path fill-rule="evenodd" clip-rule="evenodd" d="M8.87176 6.01022C8.87176 7.58971 7.58971 8.88202 5.99997 8.88202C4.41023 8.88202 3.12817 7.58971 3.12817 6.01022C3.12817 4.43074 4.42048 3.13843 5.99997 3.13843C7.57946 3.13843 8.87176 4.43074 8.87176 6.01022ZM8.04099 6.01022C8.04099 4.88202 7.12817 3.9692 5.99997 3.9692C4.87176 3.9692 3.95894 4.88202 3.95894 6.01022C3.95894 7.13843 4.87176 8.05125 5.99997 8.05125C7.12817 8.05125 8.04099 7.13843 8.04099 6.01022Z" fill="white"/>
<path d="M6.42049 1.80511V0.482036C6.42049 0.246139 6.23588 0.0615234 5.99998 0.0615234C5.76408 0.0615234 5.57947 0.246139 5.57947 0.482036V1.80511C5.57947 2.04101 5.76408 2.22563 5.99998 2.22563C6.23588 2.22563 6.42049 2.04101 6.42049 1.80511Z" fill="white"/>
<path d="M5.57947 10.2153V11.5384C5.57947 11.7743 5.76408 11.9589 5.99998 11.9589C6.23588 11.9589 6.42049 11.7743 6.42049 11.5384V10.2153C6.42049 9.97942 6.23588 9.7948 5.99998 9.7948C5.76408 9.7948 5.57947 9.97942 5.57947 10.2153Z" fill="white"/>
<path d="M9.27178 3.33329L10.2051 2.39996C10.3692 2.23585 10.3692 1.96919 10.2051 1.80508C10.041 1.64098 9.77435 1.64098 9.61024 1.80508L8.67691 2.73842C8.51281 2.90252 8.51281 3.16919 8.67691 3.33329C8.75896 3.41534 8.86153 3.45637 8.97435 3.45637C9.08717 3.45637 9.18973 3.41534 9.27178 3.33329Z" fill="white"/>
<path d="M1.79483 10.2154C1.87688 10.2974 1.97945 10.3384 2.09227 10.3384C2.19483 10.3384 2.30765 10.2974 2.3897 10.2154L3.32304 9.28204C3.48714 9.11793 3.48714 8.85127 3.32304 8.68716C3.15893 8.52306 2.89227 8.52306 2.72816 8.68716L1.79483 9.6205C1.63073 9.7846 1.63073 10.0513 1.79483 10.2154Z" fill="white"/>
<path d="M11.9486 6.01023C11.9486 5.77434 11.764 5.58972 11.5281 5.58972H10.2051C9.96916 5.58972 9.78455 5.77434 9.78455 6.01023C9.78455 6.24613 9.96916 6.43075 10.2051 6.43075H11.5281C11.7538 6.43075 11.9486 6.24613 11.9486 6.01023Z" fill="white"/>
<path d="M0.471782 6.43075H1.79486C2.03076 6.43075 2.21537 6.24613 2.21537 6.01023C2.21537 5.77434 2.03076 5.58972 1.79486 5.58972H0.471782C0.235885 5.58972 0.0512695 5.77434 0.0512695 6.01023C0.0512695 6.24613 0.246141 6.43075 0.471782 6.43075Z" fill="white"/>
<path d="M9.90768 10.3384C10.0102 10.3384 10.1231 10.2974 10.2051 10.2154C10.3692 10.0513 10.3692 9.7846 10.2051 9.6205L9.27178 8.68716C9.10768 8.52306 8.84101 8.52306 8.67691 8.68716C8.51281 8.85127 8.51281 9.11793 8.67691 9.28204L9.61024 10.2154C9.69229 10.2974 9.80512 10.3384 9.90768 10.3384Z" fill="white"/>
<path d="M3.32304 3.33329C3.48714 3.16919 3.48714 2.90252 3.32304 2.73842L2.3897 1.80508C2.2256 1.64098 1.95893 1.64098 1.79483 1.80508C1.63073 1.96919 1.63073 2.23585 1.79483 2.39996L2.72816 3.33329C2.81021 3.41534 2.91278 3.45637 3.0256 3.45637C3.13842 3.45637 3.24098 3.41534 3.32304 3.33329Z" fill="white"/>
</svg>
