<svg width="12" height="12" viewBox="0 0 12 12" fill="none" xmlns="http://www.w3.org/2000/svg">
<path fill-rule="evenodd" clip-rule="evenodd" d="M11.3374 7.93778C11.4102 8.01065 11.4559 8.09913 11.474 8.20328C11.4924 8.30721 11.4807 8.40597 11.439 8.49953C10.9499 9.55573 10.2124 10.3999 9.22641 11.032C8.24052 11.6641 7.16496 11.9802 5.9994 11.9802C5.18779 11.9802 4.41267 11.8215 3.67386 11.5042C2.93497 11.1867 2.29762 10.76 1.76174 10.2243C1.22581 9.68841 0.799248 9.05107 0.481805 8.31226C0.164445 7.57346 0.0057373 6.79824 0.0057373 5.98656C0.0057373 5.19054 0.15537 4.42962 0.45447 3.7038C0.753653 2.97803 1.15952 2.34974 1.67198 1.81906C2.18448 1.28827 2.79714 0.860428 3.50993 0.53528C4.22275 0.210214 4.97717 0.0319092 5.7732 0.000720171C6.0021 -0.00963974 6.16078 0.0917726 6.24924 0.305012C6.34289 0.51836 6.3038 0.705713 6.13205 0.866934C5.68466 1.27277 5.34253 1.74493 5.10581 2.28343C4.86914 2.82195 4.7507 3.39038 4.7507 3.98868C4.7507 4.75876 4.94054 5.46892 5.32047 6.1193C5.70027 6.7697 6.21526 7.28475 6.86559 7.66454C7.51592 8.04444 8.22611 8.23414 8.99617 8.23414C9.61001 8.23414 10.2033 8.10157 10.7756 7.8362C10.9889 7.74255 11.1762 7.77642 11.3374 7.93778ZM5.99934 10.9812C6.74862 10.9812 7.46014 10.8213 8.13384 10.5012C8.8075 10.1814 9.38124 9.73543 9.85462 9.16309C9.57365 9.20997 9.28737 9.23334 8.99609 9.23334C8.04904 9.23334 7.17253 8.99922 6.36617 8.531C5.55969 8.06256 4.92229 7.42533 4.4541 6.61898C3.98577 5.81238 3.75168 4.93573 3.75168 3.98874C3.75168 2.98973 4.02227 2.06106 4.56336 1.20261C3.51761 1.51477 2.66299 2.11051 1.99968 2.98973C1.33632 3.86909 1.00461 4.86802 1.00461 5.98662C1.00461 6.66302 1.13729 7.3094 1.40263 7.92597C1.66808 8.54251 2.0231 9.07318 2.46787 9.51798C2.91274 9.96291 3.4435 10.318 4.06002 10.5833C4.67661 10.8486 5.32299 10.9812 5.99934 10.9812Z" fill="white"/>
</svg>
